<svg width="192" height="78" viewBox="0 0 192 78" fill="none" xmlns="http://www.w3.org/2000/svg">
<path d="M17.4114 47.4756C17.3034 46.386 16.8396 45.5395 16.0202 44.9362C15.2007 44.3329 14.0886 44.0312 12.6837 44.0312C11.7292 44.0312 10.9232 44.1663 10.2659 44.4364C9.60849 44.6976 9.1042 45.0623 8.753 45.5305C8.41081 45.9988 8.23971 46.5301 8.23971 47.1244C8.2217 47.6197 8.32526 48.052 8.55039 48.4212C8.78452 48.7904 9.1042 49.1101 9.50943 49.3802C9.91467 49.6414 10.3829 49.871 10.9142 50.0691C11.4455 50.2582 12.0129 50.4203 12.6162 50.5554L15.1016 51.1497C16.3083 51.4199 17.416 51.7801 18.4245 52.2304C19.4331 52.6806 20.3066 53.2344 21.045 53.8918C21.7834 54.5492 22.3553 55.3236 22.7605 56.2151C23.1747 57.1067 23.3864 58.1287 23.3954 59.2814C23.3864 60.9744 22.9541 62.4422 22.0986 63.6849C21.2521 64.9186 20.0274 65.8777 18.4245 66.5621C16.8306 67.2374 14.908 67.5751 12.6567 67.5751C10.4235 67.5751 8.47834 67.2329 6.8214 66.5485C5.17346 65.8642 3.88572 64.8511 2.95819 63.5093C2.03967 62.1585 1.55789 60.4881 1.51286 58.4979H7.1726C7.23563 59.4255 7.50129 60.1999 7.96955 60.8213C8.44683 61.4336 9.08169 61.8974 9.87414 62.2126C10.6756 62.5187 11.5806 62.6718 12.5892 62.6718C13.5798 62.6718 14.4398 62.5278 15.1692 62.2396C15.9076 61.9514 16.4794 61.5507 16.8846 61.0374C17.2899 60.5241 17.4925 59.9343 17.4925 59.2679C17.4925 58.6465 17.3079 58.1242 16.9387 57.701C16.5785 57.2778 16.0472 56.9175 15.3448 56.6204C14.6514 56.3232 13.8004 56.0531 12.7918 55.8099L9.77959 55.0535C7.44726 54.4862 5.6057 53.5991 4.25493 52.3925C2.90416 51.1858 2.23328 49.5603 2.24228 47.5162C2.23328 45.8412 2.67903 44.3779 3.57955 43.1262C4.48907 41.8744 5.73628 40.8974 7.32118 40.195C8.90609 39.4926 10.7071 39.1414 12.7243 39.1414C14.7774 39.1414 16.5695 39.4926 18.1003 40.195C19.6402 40.8974 20.8379 41.8744 21.6934 43.1262C22.5489 44.3779 22.9901 45.8277 23.0172 47.4756H17.4114ZM32.4354 61.213L32.4489 54.3106H33.2864L39.9322 46.4356H46.5375L37.6089 56.8635H36.2446L32.4354 61.213ZM27.2214 67.1834V39.5196H32.9757V67.1834H27.2214ZM40.1888 67.1834L34.0834 58.1467L37.9195 54.0809L46.9292 67.1834H40.1888ZM53.2474 74.9639C52.518 74.9639 51.8336 74.9053 51.1943 74.7883C50.5639 74.6802 50.0416 74.5406 49.6274 74.3695L50.9241 70.0741C51.5995 70.2812 52.2073 70.3937 52.7476 70.4118C53.297 70.4298 53.7697 70.3037 54.1659 70.0335C54.5712 69.7634 54.8999 69.3041 55.152 68.6558L55.4897 67.7778L48.047 46.4356H54.0984L58.3939 61.6723H58.61L62.946 46.4356H69.0379L60.9738 69.4257C60.5866 70.5423 60.0598 71.5149 59.3934 72.3434C58.7361 73.1808 57.9031 73.8247 56.8945 74.275C55.8859 74.7342 54.6702 74.9639 53.2474 74.9639ZM72.0907 67.1834V39.5196H77.9395V50.9336H89.8128V39.5196H95.6482V67.1834H89.8128V55.7559H77.9395V67.1834H72.0907ZM106.279 67.5751C104.955 67.5751 103.775 67.3455 102.74 66.8862C101.704 66.418 100.885 65.7291 100.281 64.8196C99.687 63.901 99.3898 62.7574 99.3898 61.3886C99.3898 60.2359 99.6014 59.2679 100.025 58.4844C100.448 57.701 101.024 57.0706 101.754 56.5934C102.483 56.1161 103.312 55.7559 104.239 55.5127C105.176 55.2696 106.157 55.0985 107.184 54.9994C108.39 54.8734 109.363 54.7563 110.101 54.6482C110.84 54.5312 111.376 54.3601 111.709 54.135C112.042 53.9098 112.209 53.5766 112.209 53.1354V53.0543C112.209 52.1988 111.938 51.537 111.398 51.0687C110.867 50.6004 110.11 50.3663 109.129 50.3663C108.093 50.3663 107.269 50.5959 106.657 51.0552C106.045 51.5055 105.639 52.0728 105.441 52.7572L100.119 52.3249C100.389 51.0642 100.921 49.9746 101.713 49.0561C102.506 48.1285 103.528 47.4171 104.779 46.9218C106.04 46.4175 107.499 46.1654 109.156 46.1654C110.309 46.1654 111.412 46.3005 112.465 46.5706C113.528 46.8408 114.469 47.2595 115.288 47.8268C116.117 48.3942 116.77 49.1236 117.247 50.0151C117.724 50.8976 117.963 51.9557 117.963 53.1894V67.1834H112.506V64.3063H112.344C112.011 64.9546 111.565 65.5265 111.006 66.0217C110.448 66.508 109.777 66.8907 108.994 67.1699C108.21 67.4401 107.305 67.5751 106.279 67.5751ZM107.927 63.6039C108.773 63.6039 109.521 63.4373 110.169 63.1041C110.817 62.7619 111.326 62.3026 111.695 61.7263C112.065 61.15 112.249 60.4971 112.249 59.7677V57.5659C112.069 57.683 111.821 57.791 111.506 57.8901C111.2 57.9802 110.853 58.0657 110.466 58.1467C110.079 58.2188 109.692 58.2863 109.304 58.3494C108.917 58.4034 108.566 58.4529 108.251 58.4979C107.575 58.597 106.986 58.7546 106.481 58.9707C105.977 59.1868 105.585 59.4795 105.306 59.8487C105.027 60.2089 104.887 60.6592 104.887 61.1995C104.887 61.9829 105.171 62.5818 105.738 62.996C106.315 63.4012 107.044 63.6039 107.927 63.6039ZM122.535 67.1834V39.5196H128.29V49.9205H128.465C128.717 49.3622 129.082 48.7949 129.559 48.2186C130.046 47.6332 130.676 47.147 131.45 46.7597C132.234 46.3635 133.206 46.1654 134.368 46.1654C135.881 46.1654 137.277 46.5616 138.555 47.3541C139.834 48.1375 140.856 49.3217 141.622 50.9066C142.387 52.4825 142.77 54.4591 142.77 56.8365C142.77 59.1508 142.396 61.1049 141.649 62.6988C140.91 64.2838 139.902 65.4859 138.623 66.3054C137.353 67.1159 135.93 67.5211 134.355 67.5211C133.238 67.5211 132.288 67.3365 131.504 66.9673C130.73 66.5981 130.095 66.1343 129.6 65.576C129.105 65.0087 128.726 64.4368 128.465 63.8605H128.209V67.1834H122.535ZM128.168 56.8095C128.168 58.0432 128.339 59.1193 128.681 60.0378C129.023 60.9564 129.519 61.6723 130.167 62.1856C130.815 62.6898 131.603 62.942 132.531 62.942C133.468 62.942 134.26 62.6853 134.908 62.172C135.557 61.6497 136.047 60.9293 136.381 60.0108C136.723 59.0833 136.894 58.0162 136.894 56.8095C136.894 55.6118 136.727 54.5582 136.394 53.6487C136.061 52.7392 135.57 52.0278 134.922 51.5145C134.273 51.0012 133.477 50.7445 132.531 50.7445C131.594 50.7445 130.802 50.9922 130.154 51.4874C129.514 51.9827 129.023 52.6851 128.681 53.5946C128.339 54.5042 128.168 55.5758 128.168 56.8095ZM146.609 67.1834V46.4356H152.364V67.1834H146.609ZM149.5 43.761C148.645 43.761 147.911 43.4774 147.298 42.91C146.695 42.3337 146.393 41.6448 146.393 40.8434C146.393 40.0509 146.695 39.371 147.298 38.8037C147.911 38.2274 148.645 37.9392 149.5 37.9392C150.356 37.9392 151.085 38.2274 151.688 38.8037C152.301 39.371 152.607 40.0509 152.607 40.8434C152.607 41.6448 152.301 42.3337 151.688 42.91C151.085 43.4774 150.356 43.761 149.5 43.761ZM168.009 46.4356V50.758H155.514V46.4356H168.009ZM158.351 41.4647H164.105V60.8078C164.105 61.3391 164.186 61.7533 164.348 62.0505C164.51 62.3386 164.736 62.5413 165.024 62.6583C165.321 62.7754 165.663 62.8339 166.05 62.8339C166.321 62.8339 166.591 62.8114 166.861 62.7664C167.131 62.7124 167.338 62.6718 167.482 62.6448L168.387 66.9268C168.099 67.0168 167.694 67.1204 167.172 67.2374C166.649 67.3635 166.014 67.4401 165.267 67.4671C163.88 67.5211 162.664 67.3365 161.62 66.9133C160.584 66.49 159.778 65.8326 159.202 64.9411C158.626 64.0496 158.342 62.924 158.351 61.5642V41.4647ZM188.76 52.3519L183.492 52.6761C183.402 52.2259 183.209 51.8206 182.911 51.4604C182.614 51.0912 182.223 50.7985 181.736 50.5824C181.259 50.3573 180.687 50.2447 180.021 50.2447C179.129 50.2447 178.377 50.4338 177.765 50.8121C177.153 51.1813 176.846 51.6765 176.846 52.2979C176.846 52.7932 177.045 53.2119 177.441 53.5541C177.837 53.8963 178.517 54.171 179.48 54.3781L183.236 55.1345C185.253 55.5488 186.757 56.2151 187.747 57.1337C188.738 58.0522 189.233 59.2589 189.233 60.7537C189.233 62.1135 188.832 63.3067 188.031 64.3333C187.238 65.3599 186.149 66.1613 184.762 66.7377C183.384 67.305 181.795 67.5886 179.994 67.5886C177.247 67.5886 175.059 67.0168 173.429 65.8732C171.808 64.7205 170.858 63.1536 170.579 61.1725L176.239 60.8753C176.41 61.7128 176.824 62.3521 177.481 62.7934C178.139 63.2256 178.981 63.4418 180.007 63.4418C181.016 63.4418 181.826 63.2482 182.439 62.8609C183.06 62.4647 183.375 61.9559 183.384 61.3346C183.375 60.8123 183.155 60.3845 182.722 60.0513C182.29 59.7091 181.624 59.448 180.723 59.2679L177.13 58.552C175.104 58.1467 173.596 57.4443 172.605 56.4448C171.623 55.4452 171.133 54.171 171.133 52.6221C171.133 51.2893 171.493 50.1412 172.213 49.1776C172.943 48.2141 173.965 47.4711 175.28 46.9488C176.603 46.4265 178.152 46.1654 179.926 46.1654C182.547 46.1654 184.609 46.7192 186.113 47.8268C187.626 48.9345 188.508 50.4428 188.76 52.3519Z" fill="white"/>
<rect x="3.18355" y="1.17578" width="15" height="15" rx="3.5" fill="#18181B" stroke="#0C4A6E"/>
<rect x="23.1835" y="1.17578" width="15" height="15" rx="3.5" fill="#0C4A6E" stroke="#0369A1"/>
<rect x="43.1835" y="1.17578" width="15" height="15" rx="3.5" fill="#075985" stroke="#0284C7"/>
<rect x="63.1835" y="1.17578" width="15" height="15" rx="3.5" fill="#0369A1" stroke="#0EA5E9"/>
<rect x="83.1835" y="1.17578" width="15" height="15" rx="3.5" fill="#0284C7" stroke="#38BDF8"/>
<rect x="103.184" y="1.17578" width="15" height="15" rx="3.5" fill="#0EA5E9" stroke="#7DD3FC"/>
</svg>
