<svg width="237" height="82" viewBox="0 0 237 82" fill="none" xmlns="http://www.w3.org/2000/svg">
<path d="M19.2251 48.8733C19.1058 47.6701 18.5938 46.7355 17.6889 46.0693C16.7841 45.4031 15.5561 45.07 14.005 45.07C12.951 45.07 12.0611 45.2191 11.3352 45.5174C10.6094 45.8058 10.0526 46.2085 9.66477 46.7255C9.28693 47.2426 9.09801 47.8292 9.09801 48.4855C9.07813 49.0323 9.19247 49.5096 9.44105 49.9173C9.69957 50.325 10.0526 50.6779 10.5 50.9762C10.9474 51.2646 11.4645 51.5181 12.0511 51.7369C12.6378 51.9457 13.2642 52.1247 13.9304 52.2738L16.6747 52.9301C18.0071 53.2284 19.2301 53.6261 20.3438 54.1233C21.4574 54.6204 22.4219 55.2319 23.2372 55.9578C24.0526 56.6836 24.6839 57.5387 25.1314 58.5231C25.5888 59.5075 25.8224 60.636 25.8324 61.9088C25.8224 63.7781 25.3452 65.3988 24.4006 66.771C23.4659 68.1332 22.1136 69.1921 20.3438 69.9478C18.5838 70.6936 16.4609 71.0664 13.9751 71.0664C11.5092 71.0664 9.36151 70.6886 7.53196 69.9329C5.71236 69.1772 4.29048 68.0586 3.26634 66.5771C2.25213 65.0856 1.72017 63.2412 1.67045 61.0437H7.91974C7.98935 62.0679 8.28267 62.923 8.79972 63.6091C9.3267 64.2852 10.0277 64.7973 10.9027 65.1453C11.7876 65.4833 12.7869 65.6524 13.9006 65.6524C14.9943 65.6524 15.9439 65.4933 16.7493 65.1751C17.5646 64.8569 18.196 64.4145 18.6435 63.8477C19.0909 63.2809 19.3146 62.6296 19.3146 61.8939C19.3146 61.2078 19.1108 60.6311 18.7031 60.1637C18.3054 59.6964 17.7188 59.2987 16.9432 58.9706C16.1776 58.6424 15.2379 58.3441 14.1243 58.0757L10.7983 57.2404C8.22301 56.614 6.18963 55.6346 4.69815 54.3022C3.20668 52.9698 2.46591 51.1751 2.47585 48.918C2.46591 47.0686 2.9581 45.4528 3.95241 44.0707C4.95668 42.6886 6.33381 41.6098 8.08381 40.8342C9.83381 40.0586 11.8224 39.6708 14.0497 39.6708C16.3168 39.6708 18.2955 40.0586 19.9858 40.8342C21.6861 41.6098 23.0085 42.6886 23.9531 44.0707C24.8977 45.4528 25.3849 47.0537 25.4148 48.8733H19.2251ZM35.8141 64.0416L35.829 56.4201H36.7537L44.0918 47.7248H51.3851L41.5265 59.239H40.0201L35.8141 64.0416ZM30.057 70.6339V40.0885H36.4107V70.6339H30.057ZM44.3752 70.6339L37.6337 60.6559L41.8695 56.1666L51.8176 70.6339H44.3752ZM58.794 79.2248C57.9886 79.2248 57.233 79.1602 56.527 79.0309C55.831 78.9116 55.2543 78.7575 54.7969 78.5686L56.2287 73.8257C56.9744 74.0544 57.6456 74.1787 58.2422 74.1985C58.8487 74.2184 59.3707 74.0792 59.8082 73.7809C60.2557 73.4826 60.6186 72.9755 60.897 72.2596L61.2699 71.2902L53.0518 47.7248H59.7337L64.4766 64.5487H64.7152L69.5028 47.7248H76.2294L67.3253 73.1098C66.8977 74.3427 66.3161 75.4166 65.5803 76.3314C64.8544 77.2561 63.9347 77.967 62.821 78.4642C61.7074 78.9713 60.3651 79.2248 58.794 79.2248ZM89.3208 70.6339V40.0885H95.7789V52.6914H108.889V40.0885H115.332V70.6339H108.889V58.016H95.7789V70.6339H89.3208ZM127.07 71.0664C125.608 71.0664 124.306 70.8129 123.162 70.3058C122.019 69.7887 121.114 69.0281 120.448 68.0238C119.792 67.0096 119.464 65.7468 119.464 64.2355C119.464 62.9627 119.697 61.8939 120.165 61.0288C120.632 60.1637 121.268 59.4677 122.074 58.9407C122.879 58.4137 123.794 58.016 124.818 57.7475C125.852 57.4791 126.936 57.2902 128.069 57.1808C129.402 57.0416 130.476 56.9123 131.291 56.793C132.106 56.6637 132.698 56.4748 133.066 56.2262C133.434 55.9777 133.618 55.6098 133.618 55.1225V55.0331C133.618 54.0885 133.319 53.3576 132.723 52.8406C132.136 52.3235 131.301 52.065 130.217 52.065C129.074 52.065 128.164 52.3186 127.488 52.8257C126.812 53.3228 126.364 53.9493 126.145 54.7049L120.269 54.2277C120.567 52.8356 121.154 51.6325 122.029 50.6183C122.904 49.5941 124.032 48.8086 125.415 48.2618C126.807 47.7049 128.417 47.4265 130.247 47.4265C131.52 47.4265 132.738 47.5757 133.901 47.874C135.074 48.1723 136.113 48.6346 137.018 49.261C137.933 49.8875 138.654 50.6929 139.181 51.6772C139.708 52.6517 139.971 53.82 139.971 55.1822V70.6339H133.946V67.4571H133.767C133.399 68.173 132.907 68.8044 132.29 69.3512C131.674 69.8882 130.933 70.3108 130.068 70.619C129.203 70.9173 128.204 71.0664 127.07 71.0664ZM128.89 66.6815C129.824 66.6815 130.65 66.4975 131.366 66.1296C132.081 65.7518 132.643 65.2447 133.051 64.6083C133.459 63.972 133.662 63.2511 133.662 62.4457V60.0146C133.464 60.1439 133.19 60.2632 132.842 60.3725C132.504 60.472 132.121 60.5664 131.694 60.6559C131.266 60.7355 130.839 60.81 130.411 60.8796C129.983 60.9393 129.596 60.994 129.248 61.0437C128.502 61.1531 127.851 61.3271 127.294 61.5657C126.737 61.8044 126.305 62.1275 125.996 62.5352C125.688 62.9329 125.534 63.4301 125.534 64.0267C125.534 64.8917 125.847 65.5529 126.474 66.0103C127.11 66.4578 127.915 66.6815 128.89 66.6815ZM145.02 70.6339V40.0885H151.374V51.5728H151.568C151.846 50.9564 152.249 50.3299 152.776 49.6936C153.313 49.0473 154.009 48.5103 154.864 48.0828C155.729 47.6453 156.803 47.4265 158.085 47.4265C159.756 47.4265 161.297 47.864 162.709 48.739C164.121 49.6041 165.249 50.9116 166.095 52.6616C166.94 54.4017 167.362 56.5842 167.362 59.2092C167.362 61.7646 166.95 63.9223 166.124 65.6822C165.309 67.4322 164.195 68.7596 162.784 69.6645C161.382 70.5593 159.811 71.0068 158.07 71.0068C156.838 71.0068 155.789 70.8029 154.923 70.3953C154.068 69.9876 153.367 69.4755 152.82 68.8591C152.274 68.2326 151.856 67.6012 151.568 66.9649H151.284V70.6339H145.02ZM151.24 59.1794C151.24 60.5416 151.428 61.7298 151.806 62.744C152.184 63.7582 152.731 64.5487 153.447 65.1154C154.163 65.6723 155.033 65.9507 156.057 65.9507C157.091 65.9507 157.966 65.6673 158.682 65.1005C159.398 64.5238 159.94 63.7284 160.308 62.7142C160.686 61.69 160.874 60.5118 160.874 59.1794C160.874 57.8569 160.691 56.6936 160.323 55.6893C159.955 54.685 159.413 53.8995 158.697 53.3328C157.981 52.766 157.101 52.4826 156.057 52.4826C155.023 52.4826 154.148 52.7561 153.432 53.3029C152.726 53.8498 152.184 54.6254 151.806 55.6296C151.428 56.6339 151.24 57.8171 151.24 59.1794ZM171.602 70.6339V47.7248H177.956V70.6339H171.602ZM174.794 44.7717C173.849 44.7717 173.039 44.4585 172.363 43.8321C171.696 43.1957 171.363 42.435 171.363 41.5501C171.363 40.6751 171.696 39.9244 172.363 39.298C173.039 38.6616 173.849 38.3434 174.794 38.3434C175.738 38.3434 176.544 38.6616 177.21 39.298C177.886 39.9244 178.224 40.6751 178.224 41.5501C178.224 42.435 177.886 43.1957 177.21 43.8321C176.544 44.4585 175.738 44.7717 174.794 44.7717ZM195.231 47.7248V52.4975H181.434V47.7248H195.231ZM184.567 42.2362H190.92V63.5941C190.92 64.1808 191.01 64.6382 191.189 64.9663C191.368 65.2845 191.616 65.5082 191.934 65.6375C192.263 65.7667 192.64 65.8314 193.068 65.8314C193.366 65.8314 193.665 65.8065 193.963 65.7568C194.261 65.6971 194.49 65.6524 194.649 65.6225L195.648 70.3505C195.33 70.45 194.883 70.5643 194.306 70.6936C193.729 70.8328 193.028 70.9173 192.203 70.9471C190.672 71.0068 189.329 70.8029 188.176 70.3356C187.032 69.8683 186.143 69.1424 185.506 68.1581C184.87 67.1737 184.557 65.9308 184.567 64.4294V42.2362ZM218.143 54.2575L212.327 54.6154C212.227 54.1183 212.013 53.6708 211.685 53.2731C211.357 52.8654 210.925 52.5423 210.388 52.3037C209.861 52.0551 209.229 51.9308 208.494 51.9308C207.509 51.9308 206.679 52.1396 206.003 52.5572C205.327 52.9649 204.989 53.5118 204.989 54.1978C204.989 54.7447 205.207 55.2071 205.645 55.5849C206.082 55.9627 206.833 56.266 207.897 56.4947L212.043 57.3299C214.271 57.7873 215.931 58.5231 217.025 59.5373C218.119 60.5515 218.665 61.8839 218.665 63.5345C218.665 65.0359 218.223 66.3534 217.338 67.4869C216.463 68.6204 215.26 69.5054 213.729 70.1417C212.207 70.7681 210.452 71.0814 208.464 71.0814C205.431 71.0814 203.015 70.45 201.215 69.1872C199.425 67.9145 198.376 66.1843 198.068 63.9968L204.317 63.6687C204.506 64.5934 204.964 65.2994 205.69 65.7866C206.415 66.2639 207.345 66.5025 208.479 66.5025C209.592 66.5025 210.487 66.2887 211.163 65.8612C211.849 65.4237 212.197 64.8619 212.207 64.1758C212.197 63.5991 211.954 63.1268 211.477 62.7589C210.999 62.3811 210.263 62.0927 209.269 61.8939L205.302 61.1034C203.065 60.6559 201.399 59.8804 200.305 58.7767C199.222 57.673 198.68 56.266 198.68 54.5558C198.68 53.0842 199.077 51.8164 199.873 50.7525C200.678 49.6886 201.807 48.8683 203.259 48.2916C204.72 47.7149 206.43 47.4265 208.389 47.4265C211.283 47.4265 213.56 48.038 215.22 49.261C216.891 50.4841 217.865 52.1495 218.143 54.2575Z" fill="white"/>
<rect x="3.5" y="0.710541" width="15" height="15" rx="3.5" fill="#18181B" stroke="#0C4A6E"/>
<rect x="23.5" y="0.710541" width="15" height="15" rx="3.5" fill="#0C4A6E" stroke="#0369A1"/>
<rect x="43.5" y="0.710541" width="15" height="15" rx="3.5" fill="#075985" stroke="#0284C7"/>
<rect x="63.5" y="0.710541" width="15" height="15" rx="3.5" fill="#0369A1" stroke="#0EA5E9"/>
<rect x="83.5" y="0.710541" width="15" height="15" rx="3.5" fill="#0284C7" stroke="#38BDF8"/>
<rect x="103.5" y="0.710541" width="15" height="15" rx="3.5" fill="#0EA5E9" stroke="#7DD3FC"/>
</svg>
